<svg width="1224" height="450" viewBox="0 0 1224 450" fill="none" xmlns="http://www.w3.org/2000/svg">
<g clip-path="url(#clip0)">
<path d="M249.945 4.11737C248.394 2.81241 246.686 1.79994 244.82 1.07996C242.946 0.367488 241.177 0 239.499 0H195.974C190.946 0 187.169 1.43995 184.658 4.31236C182.14 7.18476 180.889 10.7096 180.889 14.887V122.028C177.277 118.114 173.44 114.521 169.378 111.259C165.316 107.996 160.865 105.184 156.031 102.837C151.198 100.489 145.84 98.6968 139.972 97.4518C134.104 96.2143 127.622 95.5919 120.525 95.5919C102.982 95.5919 86.8323 98.8918 72.0617 105.484C57.2912 112.076 44.5889 121.151 33.9475 132.708C23.3062 144.265 14.9879 157.847 8.99273 173.447C2.99758 189.054 0 205.928 0 224.078C0 242.1 2.99758 258.944 8.99273 274.611C14.9879 290.278 23.3062 303.89 33.9475 315.447C44.5889 327.004 57.2912 336.109 72.0617 342.769C86.8248 349.429 102.982 352.758 120.525 352.758C127.232 352.758 133.587 351.911 139.582 350.216C145.577 348.521 151.19 346.301 156.413 343.556C161.637 340.819 166.47 337.714 170.922 334.249C175.373 330.792 179.337 327.297 182.822 323.772L186.494 333.177C187.656 335.659 188.622 337.849 189.394 339.739C190.166 341.629 191.036 343.196 192.01 344.441C192.976 345.686 194.168 346.631 195.592 347.284C197.008 347.936 199.009 348.266 201.587 348.266H239.506C249.953 348.266 255.176 343.241 255.176 333.184V14.8945C255.176 12.6746 254.689 10.6572 253.722 8.81971C252.756 6.99727 251.497 5.42982 249.945 4.11737ZM186.749 226.373C186.359 234.592 184.501 242.287 181.181 249.457C177.861 256.634 173.462 262.859 167.984 268.139C162.514 273.419 156.091 277.566 148.732 280.566C141.366 283.566 133.512 285.066 125.171 285.066C116.696 285.066 108.977 283.468 102.007 280.273C95.0381 277.078 89.073 272.744 84.1195 267.261C79.166 261.779 75.3516 255.292 72.6837 247.792C70.0084 240.292 68.6745 232.237 68.6745 223.628C68.6745 215.28 70.0084 207.323 72.6837 199.763C75.3516 192.196 79.166 185.551 84.1195 179.807C89.073 174.069 95.0306 169.532 102.007 166.21C108.977 162.88 116.703 161.222 125.171 161.222C133.902 161.222 142.018 162.887 149.512 166.21C157.006 169.539 163.518 174.069 169.063 179.807C174.601 185.551 178.933 192.196 182.065 199.763C185.19 207.331 186.756 215.288 186.756 223.628V226.373H186.749Z" fill="#232931"/>
<path d="M515.695 127.751C508.599 117.851 499.621 110.036 488.755 104.299C477.881 98.569 465.029 95.7041 450.191 95.7041C442.51 95.7041 435.218 96.5815 428.324 98.344C421.422 100.099 415.142 102.379 409.484 105.184C403.818 107.981 398.812 111.176 394.451 114.753C390.089 118.338 386.672 121.953 384.199 125.598V14.5042C384.199 12.5468 383.772 10.4544 382.933 8.23443C382.086 6.01451 380.812 4.31956 379.126 3.1421C375.476 1.05717 372.156 0.00720215 369.166 0.00720215H323.626C318.08 0.00720215 314.078 1.37966 311.628 4.12457C309.177 6.86948 307.956 10.4619 307.956 14.9017V113.059V114.041V172.322V173.694V333.176C307.956 337.751 309.177 341.404 311.628 344.148C314.078 346.893 318.073 348.266 323.626 348.266H367.345C369.279 348.266 370.987 348.071 372.471 347.681C373.955 347.291 375.536 346.571 377.207 345.521C378.879 344.343 380.138 342.648 380.977 340.429C381.816 338.209 382.236 335.989 382.236 333.769V204.653C382.633 198.781 384.042 193.441 386.477 188.611C388.913 183.789 391.941 179.641 395.56 176.184C399.18 172.727 403.256 170.057 407.798 168.167C412.339 166.277 416.978 165.332 421.714 165.332C427.244 165.332 432.475 166.344 437.406 168.362C442.345 170.387 446.654 173.192 450.333 176.776C454.02 180.369 456.95 184.569 459.116 189.399C461.289 194.228 462.376 199.448 462.376 205.051V334.376C462.376 339.851 463.425 343.541 465.538 345.431C467.644 347.321 471.526 348.266 477.184 348.266H523.197C527.881 348.266 531.298 346.991 533.449 344.448C535.599 341.899 536.671 338.149 536.671 333.184V204.833C536.671 189.818 534.947 175.689 531.5 162.452C528.06 149.215 522.785 137.65 515.695 127.751Z" fill="#232931"/>
<path d="M652.28 103.991C650.729 102.619 649.05 101.576 647.252 100.856C645.445 100.144 643.767 99.784 642.223 99.784H597.919C593.018 99.784 589.406 101.284 587.083 104.284C584.76 107.284 583.598 110.869 583.598 115.046V333.191C583.598 343.241 588.372 348.258 597.911 348.258H642.216C647.244 348.258 651.111 346.983 653.824 344.441C656.529 341.899 657.885 338.149 657.885 333.191V115.046C657.885 112.699 657.338 110.614 656.244 108.784C655.15 106.961 653.824 105.364 652.28 103.991Z" fill="#232931"/>
<path d="M946.687 105.169C944.604 104.194 941.733 103.706 938.091 103.706H887.904C884 103.706 880.935 104.426 878.724 105.859C876.514 107.291 874.693 110.096 873.254 114.258L819.162 271.573L763.902 114.258C762.861 111.266 761.294 108.754 759.218 106.736C757.135 104.719 754.467 103.706 751.207 103.706H702.976C696.075 103.706 691.616 105.566 689.6 109.279C687.584 112.991 687.614 117.453 689.697 122.666L782.847 351.116L752.189 430.846C751.927 431.108 751.567 431.693 751.118 432.608C750.66 433.516 750.436 434.821 750.436 436.515C750.436 440.94 751.507 444.3 753.658 446.58C755.809 448.86 759.81 450 765.671 450H810.777C814.164 450 817.027 448.928 819.372 446.775C821.718 444.623 823.344 441.795 824.251 438.27L823.666 439.245C825.487 434.296 828.155 427.261 831.67 418.141C835.185 409.021 839.314 398.432 844.072 386.387C848.824 374.335 854.062 361.113 859.795 346.713C865.52 332.321 871.478 317.299 877.66 301.67C883.843 286.033 890.19 270.111 896.702 253.889C903.207 237.667 909.622 221.707 915.939 206.01C922.249 190.313 928.342 175.201 934.194 160.674C940.055 146.147 945.45 132.76 950.404 120.513C951.183 118.556 951.708 116.576 951.963 114.551C952.225 112.534 951.933 110.711 951.086 109.076C950.232 107.449 948.763 106.144 946.687 105.169Z" fill="#232931"/>
<path d="M1202.75 289.123C1208.29 279.606 1212.59 269.331 1215.65 258.306C1218.71 247.289 1220.25 235.777 1220.25 223.777C1220.25 205.651 1216.89 188.791 1210.17 173.207C1203.46 157.622 1194.34 144.055 1182.81 132.513C1171.27 120.971 1157.72 111.904 1142.14 105.319C1126.56 98.734 1109.92 95.4416 1092.2 95.4416C1080.21 95.4416 1068.7 96.9416 1057.69 99.9415C1046.68 102.941 1036.41 107.179 1026.9 112.661C1017.38 118.143 1008.75 124.758 1001 132.52C993.239 140.283 986.592 148.892 981.054 158.35C975.516 167.807 971.215 178.081 968.15 189.166C965.085 200.251 963.556 211.793 963.556 223.792C963.556 235.792 965.085 247.304 968.15 258.321C971.207 269.346 975.509 279.621 981.054 289.138C986.592 298.662 993.239 307.302 1001 315.064C1008.75 322.827 1017.38 329.479 1026.9 335.021C1036.41 340.564 1046.68 344.838 1057.69 347.838C1068.7 350.838 1080.21 352.338 1092.2 352.338C1104.05 352.338 1115.43 350.838 1126.31 347.838C1137.19 344.838 1147.39 340.571 1156.91 335.021C1166.42 329.479 1214.15 342.394 1221.91 334.631C1229.66 326.854 1197.2 298.648 1202.75 289.123ZM1038.59 242.459C1038.59 245.684 1035.95 248.332 1032.72 248.332H1028.81C1025.59 248.332 1022.95 245.692 1022.95 242.459V203.333C1022.95 200.108 1025.58 197.461 1028.81 197.461H1032.72C1035.95 197.461 1038.59 200.101 1038.59 203.333V242.459ZM1069.87 269.848C1069.87 273.073 1067.23 275.721 1064 275.721H1060.09C1056.87 275.721 1054.22 273.081 1054.22 269.848V177.901C1054.22 174.677 1056.86 172.029 1060.09 172.029H1064C1067.23 172.029 1069.87 174.669 1069.87 177.901V269.848ZM1101.15 254.196C1101.15 257.421 1098.51 260.069 1095.28 260.069H1091.37C1088.15 260.069 1085.5 257.429 1085.5 254.196V189.631C1085.5 186.406 1088.14 183.759 1091.37 183.759H1095.28C1098.51 183.759 1101.15 186.399 1101.15 189.631V254.196ZM1132.43 277.678C1132.43 280.903 1129.79 283.55 1126.56 283.55H1122.65C1119.43 283.55 1116.78 280.911 1116.78 277.678V170.072C1116.78 166.847 1119.42 164.199 1122.65 164.199H1126.56C1129.79 164.199 1132.43 166.839 1132.43 170.072V277.678ZM1163.71 242.459C1163.71 245.684 1161.07 248.332 1157.84 248.332H1153.93C1150.71 248.332 1148.06 245.692 1148.06 242.459V203.333C1148.06 200.108 1150.7 197.461 1153.93 197.461H1157.84C1161.07 197.461 1163.71 200.101 1163.71 203.333V242.459Z" fill="#232931"/>
<path d="M649.02 0.00720215H592.816C587.87 0.00720215 583.823 4.05707 583.823 9.00691V42.7558C583.823 47.7057 587.87 51.7555 592.816 51.7555H601.808V74.8248C601.808 76.8272 604.229 77.8322 605.645 76.4147L635.531 51.7555H649.02C653.966 51.7555 658.013 47.7057 658.013 42.7558V9.00691C658.013 4.05707 653.966 0.00720215 649.02 0.00720215ZM618.295 36.756H599.56C597.492 36.756 595.813 35.0761 595.813 33.0061C595.813 30.9362 597.492 29.2563 599.56 29.2563H618.295C620.363 29.2563 622.042 30.9362 622.042 33.0061C622.042 35.0761 620.371 36.756 618.295 36.756ZM637.03 21.7565H599.56C597.492 21.7565 595.813 20.0765 595.813 18.0066C595.813 15.9367 597.492 14.2567 599.56 14.2567H637.03C639.098 14.2567 640.777 15.9367 640.777 18.0066C640.777 20.0765 639.106 21.7565 637.03 21.7565Z" fill="#F73859"/>
</g>
<defs>
<clipPath id="clip0">
<rect width="1223.11" height="450" fill="white"/>
</clipPath>
</defs>
</svg>
