<svg width="480" height="480" viewBox="0 0 480 480" fill="none" xmlns="http://www.w3.org/2000/svg">
<g clip-path="url(#clip0)">
<path d="M413.929 415.741C319.992 411.542 238.688 349.105 210.383 259.437C182.078 169.765 212.809 71.9686 287.312 14.6015C289.973 12.5508 291.07 9.05467 290.055 5.85155C289.043 2.65234 286.141 0.421874 282.785 0.273437C279.199 0.113281 275.625 0 272 0C139.453 0 32.0005 107.453 32.0005 239.999C32.0005 372.546 139.453 479.999 272 479.999C325.027 480.155 376.582 462.581 418.472 430.069C421.132 428.019 422.23 424.523 421.214 421.315C420.195 418.112 417.285 415.886 413.929 415.741V415.741ZM272 463.999C150.485 464.042 51.0981 367.191 47.9965 245.718C44.895 124.242 139.211 22.4492 260.57 16.289C192.735 79.3904 167.278 175.898 195.164 264.246C223.047 352.593 299.289 417.007 391.054 429.733C355.437 452.245 314.137 464.132 272 463.999Z" fill="#EEEEEE"/>
<path d="M440 287.999C426.746 287.999 416 277.253 416 263.999C416 259.581 412.418 255.999 408 255.999C403.582 255.999 400 259.581 400 263.999C400 277.253 389.254 287.999 376 287.999C371.582 287.999 368 291.581 368 295.999C368 300.417 371.582 303.999 376 303.999C389.254 303.999 400 314.745 400 327.999C400 332.417 403.582 335.999 408 335.999C412.418 335.999 416 332.417 416 327.999C416 314.745 426.746 303.999 440 303.999C444.418 303.999 448 300.417 448 295.999C448 291.581 444.418 287.999 440 287.999ZM408 304.245C405.672 301.109 402.89 298.331 399.754 295.999C402.89 293.667 405.672 290.89 408 287.753C410.332 290.89 413.109 293.667 416.25 295.999C413.109 298.331 410.332 301.109 408 304.245Z" fill="#EEEEEE"/>
<path d="M352 248C352 252.418 355.582 256 360 256C364.418 256 368 252.418 368 248C368 234.746 378.746 224 392 224C396.418 224 400 220.418 400 216C400 211.582 396.418 208 392 208C378.746 208 368 197.254 368 184C368 179.582 364.418 176 360 176C355.582 176 352 179.582 352 184C352 197.254 341.254 208 328 208C323.582 208 320 211.582 320 216C320 220.418 323.582 224 328 224C341.254 224 352 234.746 352 248ZM360 207.754C362.332 210.89 365.109 213.668 368.25 216C365.109 218.332 362.332 221.109 360 224.246C357.672 221.109 354.89 218.332 351.754 216C354.89 213.668 357.672 210.89 360 207.754Z" fill="#EEEEEE"/>
<path d="M308 231.999C304.898 231.999 302.078 233.792 300.762 236.601L291.449 256.441L270.793 259.593C267.828 260.042 265.363 262.117 264.414 264.96C263.461 267.804 264.18 270.941 266.273 273.089L281.473 288.648L277.863 310.71C277.379 313.726 278.656 316.753 281.148 318.515C283.641 320.277 286.922 320.464 289.601 318.999L308 308.839L326.402 318.999C327.582 319.66 328.914 320.003 330.266 319.999C332.613 320.003 334.844 318.972 336.367 317.183C337.887 315.394 338.547 313.031 338.168 310.71L334.558 288.648L349.762 273.089C351.855 270.941 352.574 267.804 351.621 264.96C350.668 262.117 348.207 260.042 345.242 259.593L324.586 256.441L315.273 236.601C313.949 233.781 311.113 231.988 308 231.999V231.999ZM327.402 273.062L320.273 280.367C318.5 282.183 317.695 284.734 318.105 287.238L319.703 297.031L311.863 292.703C309.461 291.378 306.543 291.378 304.137 292.703L296.297 297.031L297.898 287.238C298.305 284.734 297.5 282.183 295.73 280.367L288.601 273.062L298.09 271.609C300.723 271.206 302.984 269.515 304.121 267.105L308 258.831L311.879 267.105C313.016 269.515 315.277 271.206 317.914 271.609L327.402 273.062Z" fill="#EEEEEE"/>
<path d="M134.985 364.097C132.793 360.323 127.985 358.999 124.172 361.12C120.364 363.245 118.953 368.03 121.008 371.878C122.739 374.991 164.528 447.999 272 447.999C276.418 447.999 280 444.417 280 439.999C280 435.581 276.418 431.999 272 431.999C174.282 431.999 136.535 366.862 134.985 364.097V364.097Z" fill="#EEEEEE"/>
</g>
<defs>
<clipPath id="clip0">
<rect width="480" height="480" fill="white"/>
</clipPath>
</defs>
</svg>
