<svg width="480" height="480" viewBox="0 0 480 480" fill="none" xmlns="http://www.w3.org/2000/svg">
<path d="M240 376.745C315.341 376.745 376.42 315.667 376.42 240.326C376.42 164.985 315.341 103.906 240 103.906C164.659 103.906 103.58 164.985 103.58 240.326C103.669 315.633 164.692 376.656 240 376.745ZM240 119.064C306.97 119.064 361.262 173.356 361.262 240.326C361.262 307.296 306.97 361.588 240 361.588C173.03 361.588 118.738 307.296 118.738 240.326C118.816 173.389 173.063 119.145 240 119.064Z" fill="#121212"/>
<path d="M67.8471 310.053L45.8655 381.452L120.559 382.544C130.173 382.685 138.662 388.846 141.778 397.942L165.873 468.669L226.948 425.597C234.812 420.072 245.296 420.072 253.156 425.597L314.234 468.669L338.329 397.935C341.445 388.839 349.934 382.677 359.548 382.537L434.245 381.452L412.267 310.06C409.455 300.886 412.682 290.935 420.346 285.162L480 240.326L420.242 195.519C412.56 189.749 409.325 179.78 412.153 170.599L434.134 99.1989L359.441 98.1072C349.831 97.9666 341.338 91.805 338.222 82.7089L314.183 12.0123L253.104 55.0838C245.24 60.6088 234.76 60.6088 226.896 55.0838L165.817 12.0049L141.726 82.7385C138.607 91.8346 130.117 97.9962 120.503 98.1405L45.8063 99.2211L67.7842 170.617C70.6004 179.787 67.3698 189.738 59.7058 195.511L0 240.326L59.7576 285.133C67.4401 290.902 70.6744 300.871 67.8471 310.053V310.053ZM68.8537 207.668C81.6505 198.053 87.0497 181.453 82.361 166.15L66.3003 114.086L120.784 113.328C136.786 113.065 150.908 102.8 156.096 87.6566L173.655 36.1218L218.181 67.5216C231.285 76.7361 248.763 76.7361 261.863 67.5216L306.389 36.1218L323.952 87.6566C329.129 102.807 343.258 113.076 359.267 113.328L413.744 114.086L397.639 166.158C392.961 181.449 398.349 198.028 411.124 207.646L454.732 240.326L411.146 273.013C398.364 282.624 392.965 299.206 397.639 314.501L413.7 366.569L359.215 367.324C343.214 367.586 329.092 377.852 323.904 392.995L306.345 444.53L261.819 413.133C248.719 403.912 231.237 403.912 218.137 413.133L173.611 444.53L156.048 392.995C150.871 377.844 136.742 367.575 120.733 367.324L66.2559 366.528L82.3129 314.464C86.9941 299.173 81.6023 282.594 68.8315 272.976L25.2678 240.326L68.8537 207.668Z" fill="#121212"/>
<path d="M149.053 255.483C153.239 255.483 156.632 252.09 156.632 247.905C156.632 247.146 157.335 171.246 218.096 164.493C222.259 164.03 225.257 160.285 224.798 156.126C224.335 151.962 220.59 148.965 216.431 149.424C157.139 156.011 141.475 216.727 141.475 247.905C141.475 252.09 144.868 255.483 149.053 255.483Z" fill="#121212"/>
<path d="M183.562 322.935C187.307 324.807 191.859 323.286 193.731 319.541C195.604 315.792 194.083 311.241 190.334 309.368C174.099 300.879 161.895 286.295 156.407 268.813C155.385 264.753 151.263 262.293 147.203 263.314C143.144 264.335 140.679 268.454 141.7 272.514C148.188 294.329 163.308 312.547 183.562 322.935V322.935Z" fill="#121212"/>
</svg>
